<svg viewBox="0 0 520 380" fill="none" xmlns="http://www.w3.org/2000/svg">
  <!-- Background gradient -->
  <defs>
    <radialGradient id="heroGlow" cx="0.5" cy="0.6" r="0.5">
      <stop offset="0%" stop-color="#2563EB" stop-opacity="0.12"/>
      <stop offset="100%" stop-color="#0B1020" stop-opacity="0"/>
    </radialGradient>
    <linearGradient id="roadGrad" x1="0" y1="0" x2="520" y2="0">
      <stop offset="0%" stop-color="#0B1020"/>
      <stop offset="50%" stop-color="#111827"/>
      <stop offset="100%" stop-color="#0B1020"/>
    </linearGradient>
    <linearGradient id="screenGrad" x1="0" y1="0" x2="1" y2="1">
      <stop offset="0%" stop-color="#0f1d35"/>
      <stop offset="100%" stop-color="#0B1020"/>
    </linearGradient>
  </defs>

  <!-- Ambient glow -->
  <rect width="520" height="380" fill="url(#heroGlow)"/>

  <!-- === FAR BUILDINGS (background layer) === -->
  <!-- Tall left -->
  <rect x="15" y="115" width="32" height="140" rx="2" fill="#0d1525"/>
  <rect x="19" y="122" width="5" height="4" rx="1" fill="#1a2840"/>
  <rect x="27" y="122" width="5" height="4" rx="1" fill="#2563EB" opacity="0.12"/>
  <rect x="19" y="130" width="5" height="4" rx="1" fill="#1a2840"/>
  <rect x="27" y="130" width="5" height="4" rx="1" fill="#1a2840"/>
  <rect x="19" y="138" width="5" height="4" rx="1" fill="#2563EB" opacity="0.08"/>
  <rect x="27" y="138" width="5" height="4" rx="1" fill="#1a2840"/>
  <rect x="19" y="146" width="5" height="4" rx="1" fill="#1a2840"/>
  <rect x="27" y="146" width="5" height="4" rx="1" fill="#1a2840"/>
  <rect x="19" y="154" width="5" height="4" rx="1" fill="#1a2840"/>
  <rect x="27" y="154" width="5" height="4" rx="1" fill="#2563EB" opacity="0.06"/>
  <rect x="19" y="162" width="5" height="4" rx="1" fill="#1a2840"/>
  <rect x="27" y="162" width="5" height="4" rx="1" fill="#1a2840"/>
  <rect x="19" y="170" width="5" height="4" rx="1" fill="#2563EB" opacity="0.1"/>
  <rect x="27" y="170" width="5" height="4" rx="1" fill="#1a2840"/>

  <!-- Medium left -->
  <rect x="52" y="148" width="28" height="107" rx="2" fill="#0d1525"/>
  <rect x="56" y="154" width="4" height="3" rx="1" fill="#1a2840"/>
  <rect x="63" y="154" width="4" height="3" rx="1" fill="#2563EB" opacity="0.1"/>
  <rect x="56" y="161" width="4" height="3" rx="1" fill="#1a2840"/>
  <rect x="63" y="161" width="4" height="3" rx="1" fill="#1a2840"/>
  <rect x="56" y="168" width="4" height="3" rx="1" fill="#1a2840"/>
  <rect x="63" y="168" width="4" height="3" rx="1" fill="#2563EB" opacity="0.07"/>
  <rect x="56" y="175" width="4" height="3" rx="1" fill="#1a2840"/>

  <!-- Short left -->
  <rect x="85" y="175" width="24" height="80" rx="2" fill="#0d1525"/>
  <rect x="89" y="180" width="4" height="3" rx="1" fill="#1a2840"/>
  <rect x="96" y="180" width="4" height="3" rx="1" fill="#1a2840"/>

  <!-- Far right cluster -->
  <rect x="380" y="105" width="35" height="150" rx="2" fill="#0d1525"/>
  <rect x="384" y="112" width="6" height="4" rx="1" fill="#1a2840"/>
  <rect x="393" y="112" width="6" height="4" rx="1" fill="#2563EB" opacity="0.1"/>
  <rect x="384" y="120" width="6" height="4" rx="1" fill="#1a2840"/>
  <rect x="393" y="120" width="6" height="4" rx="1" fill="#1a2840"/>
  <rect x="384" y="128" width="6" height="4" rx="1" fill="#2563EB" opacity="0.08"/>
  <rect x="393" y="128" width="6" height="4" rx="1" fill="#1a2840"/>
  <rect x="384" y="136" width="6" height="4" rx="1" fill="#1a2840"/>
  <rect x="393" y="136" width="6" height="4" rx="1" fill="#1a2840"/>
  <rect x="384" y="144" width="6" height="4" rx="1" fill="#1a2840"/>
  <rect x="393" y="144" width="6" height="4" rx="1" fill="#2563EB" opacity="0.06"/>
  <rect x="384" y="152" width="6" height="4" rx="1" fill="#1a2840"/>
  <rect x="393" y="152" width="6" height="4" rx="1" fill="#1a2840"/>
  <rect x="384" y="160" width="6" height="4" rx="1" fill="#2563EB" opacity="0.09"/>

  <rect x="420" y="135" width="30" height="120" rx="2" fill="#0d1525"/>
  <rect x="424" y="141" width="5" height="4" rx="1" fill="#1a2840"/>
  <rect x="432" y="141" width="5" height="4" rx="1" fill="#1a2840"/>
  <rect x="424" y="149" width="5" height="4" rx="1" fill="#2563EB" opacity="0.08"/>

  <rect x="455" y="158" width="26" height="97" rx="2" fill="#0d1525"/>
  <rect x="459" y="164" width="4" height="3" rx="1" fill="#1a2840"/>
  <rect x="466" y="164" width="4" height="3" rx="1" fill="#1a2840"/>

  <!-- Medium right -->
  <rect x="350" y="155" width="25" height="100" rx="2" fill="#0d1525"/>
  <rect x="354" y="161" width="4" height="3" rx="1" fill="#1a2840"/>
  <rect x="361" y="161" width="4" height="3" rx="1" fill="#2563EB" opacity="0.07"/>

  <!-- === BILLBOARD (main focal point) === -->
  <!-- Shadow/depth -->
  <path d="M155 62L345 82V215L155 195V62Z" fill="#060b16"/>

  <!-- Main frame -->
  <path d="M148 55L338 75V206L148 186V55Z" fill="#111827" stroke="#2563EB" stroke-width="2"/>

  <!-- Screen -->
  <path d="M157 64L329 82V198L157 180V64Z" fill="url(#screenGrad)"/>

  <!-- Screen content: AF brand large -->
  <g opacity="0.95">
    <!-- A -->
    <path d="M210 160L230 100H236L218 160H210Z" fill="white"/>
    <path d="M233 100L253 160H246L233 100Z" fill="white"/>
    <path d="M218 143H248" stroke="white" stroke-width="4" stroke-linecap="round"/>
    <!-- Flow lines -->
    <rect x="252" y="104" width="30" height="8" rx="4" fill="#0B1020"/>
    <rect x="248" y="118" width="36" height="8" rx="4" fill="#2563EB"/>
    <rect x="244" y="132" width="30" height="8" rx="4" fill="#60A5FA"/>
  </g>

  <!-- Screen scanlines effect -->
  <path d="M157 100H329" stroke="white" stroke-width="0.3" opacity="0.03"/>
  <path d="M157 130H329" stroke="white" stroke-width="0.3" opacity="0.03"/>
  <path d="M157 160H329" stroke="white" stroke-width="0.3" opacity="0.03"/>

  <!-- Frame glow top edge -->
  <path d="M157 64L329 82" stroke="#2563EB" stroke-width="1" opacity="0.5"/>
  <path d="M157 180L329 198" stroke="#2563EB" stroke-width="0.5" opacity="0.25"/>

  <!-- Right side panel -->
  <path d="M338 75L358 68V199L338 206V75Z" fill="#080e1c" stroke="#1F2937" stroke-width="0.5"/>

  <!-- Top panel -->
  <path d="M148 55L168 48L358 68L338 75L148 55Z" fill="#0f1828" stroke="#1F2937" stroke-width="0.5"/>

  <!-- Pole -->
  <rect x="237" y="206" width="10" height="50" fill="#111827"/>
  <rect x="227" y="254" width="30" height="6" rx="3" fill="#1F2937"/>

  <!-- === GROUND === -->
  <rect x="0" y="260" width="520" height="120" fill="#070c18"/>
  <rect x="0" y="260" width="520" height="3" fill="url(#roadGrad)" opacity="0.5"/>

  <!-- Road markings -->
  <rect x="40" y="272" width="28" height="3" rx="1.5" fill="#1F2937"/>
  <rect x="140" y="275" width="28" height="3" rx="1.5" fill="#1F2937"/>
  <rect x="320" y="275" width="28" height="3" rx="1.5" fill="#1F2937"/>
  <rect x="430" y="272" width="28" height="3" rx="1.5" fill="#1F2937"/>

  <!-- === LOCATION PINS (map markers) === -->
  <g>
    <circle cx="35" cy="108" r="7" fill="#2563EB"/>
    <circle cx="35" cy="108" r="3" fill="white"/>
    <path d="M35 115L35 108" stroke="#2563EB" stroke-width="1" opacity="0.4"/>
  </g>
  <g>
    <circle cx="70" cy="141" r="6" fill="#2563EB"/>
    <circle cx="70" cy="141" r="2.5" fill="white"/>
  </g>
  <g>
    <circle cx="395" cy="98" r="7" fill="#2563EB"/>
    <circle cx="395" cy="98" r="3" fill="white"/>
  </g>
  <g>
    <circle cx="435" cy="128" r="6" fill="#2563EB"/>
    <circle cx="435" cy="128" r="2.5" fill="white"/>
  </g>
  <g>
    <circle cx="365" cy="148" r="5" fill="#60A5FA" opacity="0.7"/>
    <circle cx="365" cy="148" r="2" fill="white"/>
  </g>

  <!-- === DELIVERY TRUCK (small, bottom left) === -->
  <g transform="translate(70, 275)">
    <!-- Body -->
    <rect x="0" y="5" width="35" height="18" rx="3" fill="#1F2937"/>
    <!-- Cabin -->
    <rect x="28" y="8" width="14" height="15" rx="2" fill="#111827"/>
    <rect x="31" y="10" width="8" height="6" rx="1" fill="#2563EB" opacity="0.2"/>
    <!-- Wheels -->
    <circle cx="10" cy="25" r="4" fill="#111827" stroke="#1F2937" stroke-width="1"/>
    <circle cx="35" cy="25" r="4" fill="#111827" stroke="#1F2937" stroke-width="1"/>
    <!-- AF logo on truck -->
    <rect x="5" y="9" width="18" height="10" rx="1" fill="#2563EB" opacity="0.15"/>
    <text x="9" y="17" fill="#60A5FA" font-size="6" font-weight="bold" font-family="sans-serif">AF</text>
  </g>

  <!-- === AMBIENT LIGHTS === -->
  <circle cx="120" cy="248" r="3" fill="#2563EB" opacity="0.5"/>
  <circle cx="300" cy="250" r="2.5" fill="#60A5FA" opacity="0.35"/>
  <circle cx="450" cy="252" r="2" fill="#2563EB" opacity="0.3"/>
  <circle cx="180" cy="252" r="2" fill="#60A5FA" opacity="0.25"/>
  <circle cx="370" cy="255" r="1.5" fill="#2563EB" opacity="0.2"/>

  <!-- Connecting lines (data flow suggestion) -->
  <path d="M35 115 Q 35 130 70 141" stroke="#2563EB" stroke-width="0.5" opacity="0.2" fill="none"/>
  <path d="M395 105 Q 395 120 435 128" stroke="#2563EB" stroke-width="0.5" opacity="0.2" fill="none"/>
</svg>
